<svg xmlns="http://www.w3.org/2000/svg" version="1.0" width="318.000000" height="368.000000" preserveAspectRatio="xMidYMid meet" style=""><rect id="backgroundrect" width="100%" height="100%" x="0" y="0" fill="none" stroke="none"/>


<g class="currentLayer" style=""><title>Layer 1</title><g transform="translate(0,368) scale(0.10000000149011612,-0.10000000149011612) " fill="#b8b804" stroke="none" id="svg_1" class="selected" fill-opacity="1">
<path d="M890 3588 c-327 -228 -485 -420 -550 -665 -73 -278 -2 -604 192 -878 76 -108 245 -281 348 -358 74 -54 219 -140 207 -121 -3 5 -31 47 -61 93 -139 209 -232 470 -265 741 -43 345 41 809 215 1189 19 41 33 75 31 77 -1 1 -54 -34 -117 -78z" id="svg_2" fill="#b8b804" fill-opacity="1"/>
<path d="M2173 3659 c3 -8 25 -57 48 -109 162 -370 238 -804 199 -1145 -31 -268 -126 -534 -266 -746 -30 -46 -58 -88 -61 -93 -12 -19 133 67 207 121 99 73 271 248 342 348 160 226 239 474 225 709 -17 285 -144 506 -419 726 -116 94 -284 209 -275 189z" id="svg_3" fill="#b8b804" fill-opacity="1"/>
<path d="M186 2797 c-62 -111 -107 -217 -134 -316 -22 -83 -25 -117 -26 -256 -1 -138 2 -171 22 -239 37 -129 104 -246 195 -342 111 -118 206 -179 592 -379 83 -43 188 -102 235 -133 230 -148 331 -351 247 -494 -57 -98 -191 -173 -339 -190 -24 -3 -8 -17 127 -113 86 -60 161 -110 168 -110 16 0 72 96 99 168 25 70 56 91 88 62 11 -10 20 -27 20 -37 0 -32 -61 -167 -95 -212 l-32 -43 119 -81 118 -81 103 70 c140 97 135 90 102 133 -32 42 -95 182 -95 212 0 11 9 29 20 39 29 26 64 8 80 -42 16 -48 63 -140 88 -172 l19 -24 161 114 c140 99 158 114 134 117 -99 12 -199 52 -269 109 -142 115 -130 291 30 456 80 83 180 147 457 292 323 170 389 212 500 324 78 78 105 113 142 187 77 148 93 220 92 409 -1 140 -4 172 -27 260 -16 58 -52 150 -86 220 -85 172 -89 176 -78 74 18 -157 -20 -373 -94 -542 -129 -293 -419 -597 -708 -741 -123 -62 -223 -84 -256 -56 -22 18 -125 344 -125 397 0 65 23 101 81 127 l50 22 -21 26 c-40 52 -82 59 -330 56 l-225 -3 32 -33 c17 -18 45 -35 62 -38 17 -4 31 -12 31 -18 0 -15 -163 -507 -174 -524 -16 -26 -53 -32 -113 -16 -263 67 -623 370 -792 666 -26 46 -59 110 -73 143 -70 159 -108 381 -91 533 5 45 8 82 7 82 -2 0 -19 -28 -38 -63z" id="svg_4" fill="#b8b804" fill-opacity="1"/>
<path d="M14 1775 c3 -16 10 -59 17 -95 38 -226 170 -494 291 -593 123 -101 207 -132 564 -211 137 -31 271 -62 299 -70 27 -9 51 -13 54 -10 9 9 -42 95 -85 144 -63 69 -164 134 -399 257 -373 196 -476 263 -598 392 -40 43 -90 109 -110 147 -27 50 -36 61 -33 39z" id="svg_5" fill="#b8b804" fill-opacity="1"/>
<path d="M3130 1732 c-45 -88 -195 -239 -310 -313 -104 -67 -148 -92 -404 -226 -226 -118 -327 -184 -390 -253 -43 -49 -94 -135 -85 -144 3 -3 27 1 53 9 27 8 161 40 300 71 358 79 445 112 560 208 100 83 193 243 254 436 27 84 66 269 59 276 -1 2 -18 -27 -37 -64z" id="svg_6" fill="#b8b804" fill-opacity="1"/>
<path d="M457 873 c21 -31 233 -224 290 -264 107 -74 251 -81 375 -18 39 20 108 83 108 98 0 11 -113 38 -340 81 -188 36 -316 70 -395 105 l-55 24 17 -26z" id="svg_7" fill="#b8b804" fill-opacity="1"/>
<path d="M2680 873 c-72 -33 -200 -66 -395 -104 -233 -45 -335 -69 -335 -81 0 -20 75 -81 130 -107 40 -18 77 -26 137 -29 93 -5 147 9 215 56 59 41 270 234 291 266 10 14 16 26 15 25 -2 0 -28 -12 -58 -26z" id="svg_8" fill="#b8b804" fill-opacity="1"/>
</g></g></svg>